# xmcd
#
# Track frame offsets: 
#        225
#        13521
#        28457
#        39083
#        49889
#        64084
#        75983
#        91305
#        111141
#        123489
#        137849
#        149043
#        160782
#        169498
#        181848
#        191729
#        204320
#        214033
#        226453
#        237723
#
# Disc length: 3309 seconds
#
# Revision: 0
# Processed by: cddbd v1.5.2PL0 Copyright (c) Steve Scherf et al.
# Submitted via: ExactAudioCopy v1.0b3
#
DISCID=200cea14
DTITLE=Various Artist - The Ultimate Country Cowboy Collection: 40 Legendary 
DTITLE=Songs of the Wild West
DYEAR=1900
DGENRE=Country
TTITLE0=Home On The Range (Moe Bandy)
TTITLE1=I'm An Old Cow hand(Moe Bandy)
TTITLE2=Back In The Saddle Again (Moe Bandy)
TTITLE3=Streets Of Laredo (Moe Bandy)
TTITLE4=Old Faithful (Moe Bandy)
TTITLE5=Don't Fence Me In (Moe Bandy)
TTITLE6=San Antonio Rose (Moe Bandy)
TTITLE7=Deep In The Heart Of Texas (Moe Bandy)
TTITLE8=Oklahoma Hills (Moe Bandy)
TTITLE9=When Its Springtime In The Rockies (Moe Bandy)
TTITLE10=Take Me Back To Tulsa (Moe Bandy)
TTITLE11=Red River Valley (Moe Bandy)
TTITLE12=Cool Water (Moe Bandy)
TTITLE13=Sioux City Sue (Moe Bandy)
TTITLE14=Timbling Tumbleweeks (Moe Bandy)
TTITLE15=Bury Me Not On The Lone Prarie (Moe Bandy)
TTITLE16=High Noon (Moe Bandy)
TTITLE17=Good Old Paint (Moe Bandy)
TTITLE18=Strawberry Roan (Moe Bandy)
TTITLE19=Old Chisholm Trails (Moe Bandy)
EXTD=
EXTT0=
EXTT1=
EXTT2=
EXTT3=
EXTT4=
EXTT5=
EXTT6=
EXTT7=
EXTT8=
EXTT9=
EXTT10=
EXTT11=
EXTT12=
EXTT13=
EXTT14=
EXTT15=
EXTT16=
EXTT17=
EXTT18=
EXTT19=
PLAYORDER=
